HIERARCHY
ROOT Hips
{
	OFFSET	0.00	0.00	0.00
	CHANNELS 6 Xposition Yposition Zposition Zrotation Xrotation Yrotation
	JOINT LeftUpLeg
	{
		OFFSET	 0.126116	-0.014019	-0.065224
		CHANNELS 3 Zrotation Xrotation Yrotation
		JOINT LeftLeg
		{
			OFFSET	 0.000000	 0.000000	 0.569914
			CHANNELS 3 Zrotation Xrotation Yrotation
			JOINT LeftFoot
			{
				OFFSET	 0.000000	 0.000000	 0.544423
				CHANNELS 3 Zrotation Xrotation Yrotation
				JOINT LeftToeBase
				{
					OFFSET	 0.000000	 0.000000	 0.207117
					CHANNELS 3 Zrotation Xrotation Yrotation
					End Site
					{
						OFFSET	 0.000000	 0.000000	 0.207117
					}
				}
			}
		}
	}
	JOINT RightUpLeg
	{
		OFFSET	-0.124023	-0.008373	-0.065224
		CHANNELS 3 Zrotation Xrotation Yrotation
		JOINT RightLeg
		{
			OFFSET	 0.000000	 0.000000	 0.570047
			CHANNELS 3 Zrotation Xrotation Yrotation
			JOINT RightFoot
			{
				OFFSET	 0.000000	 0.000000	 0.544354
				CHANNELS 3 Zrotation Xrotation Yrotation
				JOINT RightToeBase
				{
					OFFSET	 0.000000	 0.000000	 0.207540
					CHANNELS 3 Zrotation Xrotation Yrotation
					End Site
					{
						OFFSET	 0.000000	 0.000000	 0.207540
					}
				}
			}
		}
	}
	JOINT Spine
	{
		OFFSET	 0.000184	-0.007763	 0.117403
		CHANNELS 3 Zrotation Xrotation Yrotation
		JOINT Spine1
		{
			OFFSET	 0.000000	 0.000000	 0.137269
			CHANNELS 3 Zrotation Xrotation Yrotation
			JOINT Spine2
			{
				OFFSET	 0.000000	 0.000000	 0.156879
				CHANNELS 3 Zrotation Xrotation Yrotation
				JOINT LeftShoulder
				{
					OFFSET	 0.080501	-0.002496	 0.160144
					CHANNELS 3 Zrotation Xrotation Yrotation
					JOINT LeftArm
					{
						OFFSET	 0.000000	 0.000000	 0.164363
						CHANNELS 3 Zrotation Xrotation Yrotation
						JOINT LeftForeArm
						{
							OFFSET	 0.000000	 0.000000	 0.364576
							CHANNELS 3 Zrotation Xrotation Yrotation
							JOINT LeftHand
							{
								OFFSET	 0.000000	 0.000000	 0.360812
								CHANNELS 3 Zrotation Xrotation Yrotation
								JOINT LeftHandIndex1
								{
									OFFSET	 0.000000	 0.000000	 0.086006
									CHANNELS 3 Zrotation Xrotation Yrotation
									JOINT LeftHandIndex2
									{
										OFFSET	 0.000000	 0.000000	 0.047237
										CHANNELS 3 Zrotation Xrotation Yrotation
										JOINT LeftHandIndex3
										{
											OFFSET	-0.004284	-0.000551	 0.038165
											CHANNELS 3 Zrotation Xrotation Yrotation
											End Site
											{
												OFFSET	-0.004284	-0.000551	 0.038165
											}
										}
									}
								}
							}
						}
					}
				}
				JOINT Neck
				{
					OFFSET	 0.000000	 0.000000	 0.176489
					CHANNELS 3 Zrotation Xrotation Yrotation
					JOINT Head
					{
						OFFSET	 0.000000	-0.001747	 0.077940
						CHANNELS 3 Zrotation Xrotation Yrotation
						End Site
						{
							OFFSET	 0.000000	-0.001747	 0.077940
						}
					}
				}
				JOINT RightShoulder
				{
					OFFSET	-0.080363	 0.000306	 0.159706
					CHANNELS 3 Zrotation Xrotation Yrotation
					JOINT RightArm
					{
						OFFSET	 0.000000	 0.000000	 0.164196
						CHANNELS 3 Zrotation Xrotation Yrotation
						JOINT RightForeArm
						{
							OFFSET	 0.000000	 0.000000	 0.365611
							CHANNELS 3 Zrotation Xrotation Yrotation
							JOINT RightHand
							{
								OFFSET	 0.000000	 0.000000	 0.360648
								CHANNELS 3 Zrotation Xrotation Yrotation
								JOINT RightHandIndex1
								{
									OFFSET	 0.000000	 0.000000	 0.069977
									CHANNELS 3 Zrotation Xrotation Yrotation
									JOINT RightHandIndex2
									{
										OFFSET	 0.000000	 0.000000	 0.052305
										CHANNELS 3 Zrotation Xrotation Yrotation
										JOINT RightHandIndex3
										{
											OFFSET	 0.009002	-0.000782	 0.042196
											CHANNELS 3 Zrotation Xrotation Yrotation
											End Site
											{
												OFFSET	 0.009002	-0.000782	 0.042196
											}
										}
									}
								}
							}
						}
					}
				}
			}
		}
	}
}
MOTION
Frames:    8
Frame Time: 0.03333334
-0.640670	-0.136969	 1.251411	-159.527200	 2.851118	 7.870675	-22.404000	-4.077723	 174.046500	-9.061656	-31.280480	-3.705380	 113.523400	 88.414530	-118.928900	-2.385833	 28.452760	 0.000004	 53.543030	-41.622200	-171.218000	-28.985980	-58.675130	-15.587500	 35.790120	 40.383110	-42.728300	 2.384659	 28.388700	-0.000001	 35.215810	-10.320680	-16.602420	 46.410600	 23.670990	-5.239933	-16.017410	-4.414793	 6.485229	-91.776210	 78.527400	-180.000000	 22.808360	 52.673920	-29.948070	-14.598980	 1.541046	-56.989830	 4.930114	-13.827430	-4.819517	-4.131196	 21.524690	 0.986298	-5.167839	 0.733520	 3.519257	-1.378229	 35.397820	-2.634230	-14.067980	 16.445050	-7.635634	-28.360190	 2.732553	 5.672214	 89.782140	 78.291740	 179.995000	 0.149717	 69.322880	 3.627984	 5.527288	 0.673164	 12.711320	 123.124500	-47.351220	 0.906780	 5.715225	 19.176060	-3.692089	 5.027514	 0.245388	-9.378011	-2.350882	 35.473990	 5.254307
-0.640429	-0.136535	 1.251659	-159.774700	 3.078710	 8.337861	-22.221330	-4.222081	 173.484500	-8.938931	-31.585600	-3.672710	 120.506600	 87.741550	-126.167100	-2.385833	 28.452760	 0.000004	 54.113740	-41.941930	-171.183800	-26.642110	-58.704920	-13.542450	 42.604790	 44.760120	-46.371010	 2.384659	 28.388700	-0.000001	 35.143760	-11.409400	-17.176850	 46.540900	 24.435070	-5.437220	-16.014760	-4.320405	 6.345478	-91.776180	 78.527380	 180.000000	 22.930890	 52.491450	-30.162600	-14.453590	 1.370219	-56.951030	 5.274938	-13.567280	-4.926944	-4.131196	 21.524690	 0.986298	-5.167839	 0.733520	 3.519257	-1.378229	 35.397820	-2.634230	-13.969560	 16.394420	-7.925158	-28.419120	 2.614413	 5.619679	 89.782140	 78.294520	 179.994400	 0.174931	 69.238010	 3.979599	 5.201777	 0.695898	 12.311970	 122.437000	-47.204650	 0.641133	 5.715225	 19.176060	-3.692089	 5.027514	 0.245388	-9.378011	-2.350882	 35.473990	 5.254307
-0.639876	-0.135651	 1.252339	-159.919200	 3.009263	 8.289307	-21.058450	-3.916296	 173.370800	-8.749793	-30.975710	-3.510702	 125.297100	 85.530330	-131.305600	-2.385833	 28.452760	 0.000004	 53.258210	-42.044850	-171.418800	-23.925640	-59.119160	-11.229450	 49.044500	 48.885500	-49.732730	 2.384659	 28.388700	-0.000001	 34.931380	-12.823920	-17.698160	 46.727400	 26.800670	-6.898410	-15.877610	-5.316076	 6.724227	-91.776240	 78.527360	-180.000000	 22.742490	 52.408860	-30.080640	-14.205680	 1.079581	-56.834300	 5.532443	-13.404370	-5.037303	-4.131196	 21.524690	 0.986298	-5.167839	 0.733520	 3.519257	-1.378229	 35.397820	-2.634230	-14.003530	 16.273950	-7.792218	-28.422030	 2.595157	 5.378568	 89.782200	 78.303710	 179.993600	-0.462115	 69.007350	 5.989802	 4.570735	 1.006488	 9.781135	 121.941100	-44.317580	 0.764031	 5.715225	 19.176060	-3.692089	 5.027514	 0.245388	-9.378011	-2.350882	 35.473990	 5.254307
-0.638985	-0.134677	 1.252806	-160.254300	 3.092457	 8.342649	-19.936820	-3.792905	 173.128100	-8.466337	-30.577750	-3.324467	 129.372800	 83.890100	-135.681000	-2.385833	 28.452760	 0.000004	 52.180890	-42.338290	-171.632800	-21.570300	-59.245620	-9.197104	 54.077300	 51.939010	-52.662230	 2.384659	 28.388700	-0.000001	 35.010700	-13.704690	-18.090490	 46.829050	 28.123930	-7.430075	-15.812780	-5.763545	 6.835861	-91.776180	 78.527420	-180.000000	 22.595590	 52.316220	-29.978200	-13.959720	 0.793512	-56.779610	 5.777273	-13.247560	-5.143933	-4.131196	 21.524690	 0.986298	-5.167839	 0.733520	 3.519257	-1.378229	 35.397820	-2.634230	-14.023200	 16.253210	-7.701921	-28.411970	 2.537616	 5.181325	 89.782160	 78.310500	 179.992800	-0.950964	 68.861340	 7.487094	 3.936128	 1.263489	 7.967162	 121.347300	-42.651360	 1.097477	 5.715225	 19.176060	-3.692089	 5.027514	 0.245388	-9.378011	-2.350882	 35.473990	 5.254307
-0.637792	-0.133862	 1.252827	-161.020300	 3.453750	 8.651217	-18.905980	-4.069993	 172.615800	-7.997111	-30.709280	-3.095572	 137.425100	 83.328380	-144.071000	-2.385833	 28.452760	 0.000004	 51.406430	-42.951740	-171.688000	-20.059310	-58.900750	-7.860437	 55.245910	 53.302280	-53.049790	 2.384659	 28.388700	-0.000001	 35.724780	-13.691840	-18.402630	 46.642010	 27.742860	-6.118272	-15.885600	-5.291725	 6.432680	-91.776250	 78.527400	-179.999900	 22.536480	 52.172890	-29.829710	-13.710340	 0.502765	-56.876360	 6.005445	-13.099640	-5.250286	-4.131196	 21.524690	 0.986298	-5.167839	 0.733520	 3.519257	-1.378229	 35.397820	-2.634230	-14.012600	 16.452450	-7.701992	-28.372410	 2.392471	 5.073280	 89.782110	 78.312930	 179.992700	-1.518621	 68.935320	 8.095464	 3.236538	 1.257939	 7.966245	 120.340600	-43.776950	 1.612717	 5.715225	 19.176060	-3.692089	 5.027514	 0.245388	-9.378011	-2.350882	 35.473990	 5.254307
-0.636140	-0.132609	 1.252841	-161.741600	 3.820454	 8.809244	-17.902980	-4.276451	 172.255200	-7.355425	-30.627510	-2.758822	 142.463500	 82.165590	-149.637100	-2.385833	 28.452760	 0.000004	 51.080190	-43.349660	-171.532000	-18.731550	-58.581680	-6.694365	 57.373940	 54.786530	-54.286380	 2.384659	 28.388700	-0.000001	 36.420060	-13.673590	-18.513070	 46.477110	 27.502990	-4.979925	-15.921640	-4.965638	 6.026785	-91.776180	 78.527400	-180.000000	 22.507310	 52.034770	-29.715650	-13.459580	 0.210192	-56.905850	 6.239179	-12.937760	-5.360542	-4.131196	 21.524690	 0.986298	-5.167839	 0.733520	 3.519257	-1.378229	 35.397820	-2.634230	-13.979690	 16.675720	-7.723658	-28.325890	 2.264090	 5.071849	 89.782100	 78.315530	 179.992500	-2.283041	 68.977030	 8.905700	 2.520678	 1.252154	 7.966749	 119.221900	-44.783950	 2.060140	 5.715225	 19.176060	-3.692089	 5.027514	 0.245388	-9.378011	-2.350882	 35.473990	 5.254307
-0.633933	-0.130628	 1.252876	-162.114400	 4.195861	 8.299941	-17.202190	-4.259347	 172.580600	-6.439326	-29.737080	-2.229179	 140.355600	 79.551420	-148.375900	-2.385833	 28.452760	 0.000004	 52.714700	-42.948260	-170.349200	-18.327190	-58.657800	-6.352730	 62.776900	 56.154960	-58.504880	 2.384659	 28.388700	-0.000001	 36.839240	-13.874250	-17.764430	 46.443840	 28.086520	-5.017569	-15.814010	-5.413812	 5.764395	-91.776210	 78.527400	-180.000000	 22.578950	 51.961930	-29.743370	-13.258190	-0.017082	-56.680640	 6.458210	-12.770330	-5.471309	-4.131196	 21.524690	 0.986298	-5.167839	 0.733520	 3.519257	-1.378229	 35.397820	-2.634230	-13.866870	 16.942540	-7.825191	-28.262360	 2.231436	 5.485418	 89.782220	 78.318840	 179.992100	-3.635061	 68.893360	 10.260190	 1.903121	 1.247585	 7.966851	 118.168800	-45.059300	 2.515962	 5.715225	 19.176060	-3.692089	 5.027514	 0.245388	-9.378011	-2.350882	 35.473990	 5.254307
-0.631679	-0.128556	 1.252927	-162.279100	 4.449088	 7.664166	-16.685230	-4.043200	 173.074500	-5.661775	-28.646320	-1.780359	 137.374000	 77.098370	-146.054300	-2.385833	 28.452760	 0.000004	 54.336230	-42.299020	-169.246700	-18.098870	-58.837540	-6.168482	 68.419490	 57.161070	-63.019720	 2.384659	 28.388700	-0.000001	 37.088930	-14.024080	-16.884950	 46.457890	 28.771830	-5.497748	-15.671540	-6.036634	 5.685792	-91.776150	 78.527420	 180.000000	 22.643760	 51.928980	-29.778490	-13.096740	-0.193254	-56.416210	 6.637403	-12.627200	-5.563385	-4.131196	 21.524690	 0.986298	-5.167839	 0.733520	 3.519257	-1.378229	 35.397820	-2.634230	-13.743320	 17.120340	-7.932645	-28.213400	 2.254271	 5.947680	 89.782170	 78.321970	 179.992200	-4.858696	 68.793500	 11.483090	 1.454858	 1.243947	 7.970356	 117.476800	-45.128250	 3.087217	 5.715225	 19.176060	-3.692089	 5.027514	 0.245388	-9.378011	-2.350882	 35.473990	 5.254307
